<mxfile host="app.diagrams.net" modified="2023-03-06T13:32:52.222Z" agent="5.0 (Windows NT 10.0; Win64; x64) AppleWebKit/537.36 (KHTML, like Gecko) Chrome/109.0.0.0 Safari/537.36" etag="A-JdcoI2z7b84m00To_g" version="21.0.2" type="github">
  <diagram id="C5RBs43oDa-KdzZeNtuy" name="Page-1">
    <mxGraphModel dx="2712" dy="1022" grid="1" gridSize="10" guides="1" tooltips="1" connect="1" arrows="1" fold="1" page="1" pageScale="1" pageWidth="827" pageHeight="1169" math="0" shadow="0">
      <root>
        <mxCell id="WIyWlLk6GJQsqaUBKTNV-0" />
        <mxCell id="WIyWlLk6GJQsqaUBKTNV-1" parent="WIyWlLk6GJQsqaUBKTNV-0" />
        <mxCell id="7wFkgzrkXo4i7w-wskaY-10" value="Določi administratorja stavbe" style="ellipse;whiteSpace=wrap;html=1;fillColor=#dae8fc;strokeColor=#6c8ebf;" vertex="1" parent="WIyWlLk6GJQsqaUBKTNV-1">
          <mxGeometry x="450" y="180" width="140" height="60" as="geometry" />
        </mxCell>
        <mxCell id="7wFkgzrkXo4i7w-wskaY-40" style="edgeStyle=orthogonalEdgeStyle;rounded=0;orthogonalLoop=1;jettySize=auto;html=1;entryX=0.5;entryY=0;entryDx=0;entryDy=0;" edge="1" parent="WIyWlLk6GJQsqaUBKTNV-1" source="7wFkgzrkXo4i7w-wskaY-16" target="7wFkgzrkXo4i7w-wskaY-4">
          <mxGeometry relative="1" as="geometry" />
        </mxCell>
        <mxCell id="7wFkgzrkXo4i7w-wskaY-41" style="edgeStyle=orthogonalEdgeStyle;rounded=0;orthogonalLoop=1;jettySize=auto;html=1;entryX=0.5;entryY=0;entryDx=0;entryDy=0;" edge="1" parent="WIyWlLk6GJQsqaUBKTNV-1" source="7wFkgzrkXo4i7w-wskaY-16" target="7wFkgzrkXo4i7w-wskaY-26">
          <mxGeometry relative="1" as="geometry" />
        </mxCell>
        <mxCell id="7wFkgzrkXo4i7w-wskaY-42" style="edgeStyle=orthogonalEdgeStyle;rounded=0;orthogonalLoop=1;jettySize=auto;html=1;entryX=0.5;entryY=0;entryDx=0;entryDy=0;" edge="1" parent="WIyWlLk6GJQsqaUBKTNV-1" source="7wFkgzrkXo4i7w-wskaY-16" target="7wFkgzrkXo4i7w-wskaY-10">
          <mxGeometry relative="1" as="geometry" />
        </mxCell>
        <mxCell id="7wFkgzrkXo4i7w-wskaY-16" value="Glavni administrator" style="shape=umlActor;verticalLabelPosition=bottom;verticalAlign=top;html=1;outlineConnect=0;fillColor=#dae8fc;strokeColor=#6c8ebf;" vertex="1" parent="WIyWlLk6GJQsqaUBKTNV-1">
          <mxGeometry x="384" y="40" width="30" height="60" as="geometry" />
        </mxCell>
        <mxCell id="7wFkgzrkXo4i7w-wskaY-17" value="&amp;lt;&amp;lt;include&amp;gt;&amp;gt;" style="html=1;verticalAlign=bottom;labelBackgroundColor=none;endArrow=open;endFill=0;dashed=1;rounded=0;" edge="1" parent="WIyWlLk6GJQsqaUBKTNV-1">
          <mxGeometry width="160" relative="1" as="geometry">
            <mxPoint x="450" y="209.57999999999998" as="sourcePoint" />
            <mxPoint x="340" y="209.57999999999998" as="targetPoint" />
          </mxGeometry>
        </mxCell>
        <mxCell id="7wFkgzrkXo4i7w-wskaY-47" style="edgeStyle=orthogonalEdgeStyle;rounded=0;orthogonalLoop=1;jettySize=auto;html=1;" edge="1" parent="WIyWlLk6GJQsqaUBKTNV-1" source="7wFkgzrkXo4i7w-wskaY-19" target="7wFkgzrkXo4i7w-wskaY-26">
          <mxGeometry relative="1" as="geometry" />
        </mxCell>
        <mxCell id="7wFkgzrkXo4i7w-wskaY-48" style="edgeStyle=orthogonalEdgeStyle;rounded=0;orthogonalLoop=1;jettySize=auto;html=1;entryX=0;entryY=0.5;entryDx=0;entryDy=0;" edge="1" parent="WIyWlLk6GJQsqaUBKTNV-1" source="7wFkgzrkXo4i7w-wskaY-19" target="7wFkgzrkXo4i7w-wskaY-45">
          <mxGeometry relative="1" as="geometry">
            <Array as="points">
              <mxPoint x="50" y="320" />
              <mxPoint x="50" y="585" />
            </Array>
          </mxGeometry>
        </mxCell>
        <mxCell id="7wFkgzrkXo4i7w-wskaY-50" style="edgeStyle=orthogonalEdgeStyle;rounded=0;orthogonalLoop=1;jettySize=auto;html=1;entryX=0;entryY=0.5;entryDx=0;entryDy=0;" edge="1" parent="WIyWlLk6GJQsqaUBKTNV-1" source="7wFkgzrkXo4i7w-wskaY-19" target="7wFkgzrkXo4i7w-wskaY-49">
          <mxGeometry relative="1" as="geometry">
            <Array as="points">
              <mxPoint x="60" y="320" />
              <mxPoint x="60" y="430" />
            </Array>
          </mxGeometry>
        </mxCell>
        <mxCell id="7wFkgzrkXo4i7w-wskaY-67" style="edgeStyle=orthogonalEdgeStyle;rounded=0;orthogonalLoop=1;jettySize=auto;html=1;entryX=0;entryY=0.5;entryDx=0;entryDy=0;" edge="1" parent="WIyWlLk6GJQsqaUBKTNV-1" source="7wFkgzrkXo4i7w-wskaY-19" target="7wFkgzrkXo4i7w-wskaY-66">
          <mxGeometry relative="1" as="geometry" />
        </mxCell>
        <mxCell id="7wFkgzrkXo4i7w-wskaY-19" value="Administrator stavbe" style="shape=umlActor;verticalLabelPosition=bottom;verticalAlign=top;html=1;outlineConnect=0;fillColor=#f8cecc;strokeColor=#b85450;" vertex="1" parent="WIyWlLk6GJQsqaUBKTNV-1">
          <mxGeometry x="-40" y="290" width="30" height="60" as="geometry" />
        </mxCell>
        <mxCell id="7wFkgzrkXo4i7w-wskaY-26" value="Vnese podatke o stavbi" style="ellipse;whiteSpace=wrap;html=1;fillColor=#f8cecc;strokeColor=#b85450;" vertex="1" parent="WIyWlLk6GJQsqaUBKTNV-1">
          <mxGeometry x="90" y="290" width="121" height="60" as="geometry" />
        </mxCell>
        <mxCell id="7wFkgzrkXo4i7w-wskaY-4" value="Doda novo stavbo" style="ellipse;whiteSpace=wrap;html=1;fillColor=#dae8fc;strokeColor=#6c8ebf;" vertex="1" parent="WIyWlLk6GJQsqaUBKTNV-1">
          <mxGeometry x="220" y="180" width="120" height="60" as="geometry" />
        </mxCell>
        <mxCell id="7wFkgzrkXo4i7w-wskaY-37" value="" style="ellipse;whiteSpace=wrap;html=1;aspect=fixed;fillColor=#dae8fc;strokeColor=#6c8ebf;" vertex="1" parent="WIyWlLk6GJQsqaUBKTNV-1">
          <mxGeometry x="170" y="340" width="10" height="10" as="geometry" />
        </mxCell>
        <mxCell id="7wFkgzrkXo4i7w-wskaY-45" value="Doda novo podjetje" style="ellipse;whiteSpace=wrap;html=1;fillColor=#f8cecc;strokeColor=#b85450;" vertex="1" parent="WIyWlLk6GJQsqaUBKTNV-1">
          <mxGeometry x="80" y="555" width="140" height="60" as="geometry" />
        </mxCell>
        <mxCell id="7wFkgzrkXo4i7w-wskaY-49" value="Doda novo polnilnico" style="ellipse;whiteSpace=wrap;html=1;fillColor=#f8cecc;strokeColor=#b85450;" vertex="1" parent="WIyWlLk6GJQsqaUBKTNV-1">
          <mxGeometry x="300" y="400" width="130" height="60" as="geometry" />
        </mxCell>
        <mxCell id="7wFkgzrkXo4i7w-wskaY-51" value="Določi tip polnilnice samo za gosta" style="ellipse;whiteSpace=wrap;html=1;fillColor=#f8cecc;strokeColor=#b85450;" vertex="1" parent="WIyWlLk6GJQsqaUBKTNV-1">
          <mxGeometry x="430" y="260" width="150" height="60" as="geometry" />
        </mxCell>
        <mxCell id="7wFkgzrkXo4i7w-wskaY-52" value="&amp;lt;&amp;lt;extend&amp;gt;&amp;gt;" style="html=1;verticalAlign=bottom;labelBackgroundColor=none;endArrow=open;endFill=0;dashed=1;rounded=0;exitX=0;exitY=1;exitDx=0;exitDy=0;entryX=0.5;entryY=0;entryDx=0;entryDy=0;" edge="1" parent="WIyWlLk6GJQsqaUBKTNV-1" source="7wFkgzrkXo4i7w-wskaY-51" target="7wFkgzrkXo4i7w-wskaY-49">
          <mxGeometry x="0.0453" y="-7" width="160" relative="1" as="geometry">
            <mxPoint x="460" y="420" as="sourcePoint" />
            <mxPoint x="620" y="420" as="targetPoint" />
            <mxPoint as="offset" />
          </mxGeometry>
        </mxCell>
        <mxCell id="7wFkgzrkXo4i7w-wskaY-53" value="Polnilnico dodeli podjetju" style="ellipse;whiteSpace=wrap;html=1;fillColor=#f8cecc;strokeColor=#b85450;" vertex="1" parent="WIyWlLk6GJQsqaUBKTNV-1">
          <mxGeometry x="300" y="555" width="160" height="60" as="geometry" />
        </mxCell>
        <mxCell id="7wFkgzrkXo4i7w-wskaY-54" value="&amp;lt;&amp;lt;extend&amp;gt;&amp;gt;" style="html=1;verticalAlign=bottom;labelBackgroundColor=none;endArrow=open;endFill=0;dashed=1;rounded=0;exitX=0.5;exitY=0;exitDx=0;exitDy=0;entryX=0.5;entryY=1;entryDx=0;entryDy=0;" edge="1" parent="WIyWlLk6GJQsqaUBKTNV-1" source="7wFkgzrkXo4i7w-wskaY-53" target="7wFkgzrkXo4i7w-wskaY-49">
          <mxGeometry width="160" relative="1" as="geometry">
            <mxPoint x="360" y="600" as="sourcePoint" />
            <mxPoint x="380" y="570" as="targetPoint" />
          </mxGeometry>
        </mxCell>
        <mxCell id="7wFkgzrkXo4i7w-wskaY-57" value="Določi maksimalno število ur polnjenja" style="ellipse;whiteSpace=wrap;html=1;fillColor=#f8cecc;strokeColor=#b85450;" vertex="1" parent="WIyWlLk6GJQsqaUBKTNV-1">
          <mxGeometry x="630" y="510" width="150" height="60" as="geometry" />
        </mxCell>
        <mxCell id="7wFkgzrkXo4i7w-wskaY-58" value="&amp;lt;&amp;lt;include&amp;gt;&amp;gt;" style="html=1;verticalAlign=bottom;labelBackgroundColor=none;endArrow=open;endFill=0;dashed=1;rounded=0;exitX=0;exitY=0;exitDx=0;exitDy=0;entryX=1;entryY=0.5;entryDx=0;entryDy=0;" edge="1" parent="WIyWlLk6GJQsqaUBKTNV-1" source="7wFkgzrkXo4i7w-wskaY-57" target="7wFkgzrkXo4i7w-wskaY-49">
          <mxGeometry width="160" relative="1" as="geometry">
            <mxPoint x="470" y="400" as="sourcePoint" />
            <mxPoint x="630" y="400" as="targetPoint" />
          </mxGeometry>
        </mxCell>
        <mxCell id="7wFkgzrkXo4i7w-wskaY-59" value="Določi maksimalno število zaporednih terminov" style="ellipse;whiteSpace=wrap;html=1;fillColor=#f8cecc;strokeColor=#b85450;" vertex="1" parent="WIyWlLk6GJQsqaUBKTNV-1">
          <mxGeometry x="500" y="540" width="130" height="80" as="geometry" />
        </mxCell>
        <mxCell id="7wFkgzrkXo4i7w-wskaY-60" value="&amp;lt;&amp;lt;include&amp;gt;&amp;gt;" style="html=1;verticalAlign=bottom;labelBackgroundColor=none;endArrow=open;endFill=0;dashed=1;rounded=0;exitX=0;exitY=0;exitDx=0;exitDy=0;entryX=1;entryY=1;entryDx=0;entryDy=0;" edge="1" parent="WIyWlLk6GJQsqaUBKTNV-1" source="7wFkgzrkXo4i7w-wskaY-59" target="7wFkgzrkXo4i7w-wskaY-49">
          <mxGeometry width="160" relative="1" as="geometry">
            <mxPoint x="540" y="450" as="sourcePoint" />
            <mxPoint x="700" y="450" as="targetPoint" />
          </mxGeometry>
        </mxCell>
        <mxCell id="7wFkgzrkXo4i7w-wskaY-61" value="Preklic terminov v primeru okvare" style="ellipse;whiteSpace=wrap;html=1;fillColor=#f8cecc;strokeColor=#b85450;" vertex="1" parent="WIyWlLk6GJQsqaUBKTNV-1">
          <mxGeometry x="560" y="315" width="150" height="60" as="geometry" />
        </mxCell>
        <mxCell id="7wFkgzrkXo4i7w-wskaY-63" value="&amp;lt;&amp;lt;extend&amp;gt;&amp;gt;" style="html=1;verticalAlign=bottom;labelBackgroundColor=none;endArrow=open;endFill=0;dashed=1;rounded=0;exitX=0;exitY=1;exitDx=0;exitDy=0;entryX=1;entryY=0;entryDx=0;entryDy=0;" edge="1" parent="WIyWlLk6GJQsqaUBKTNV-1" source="7wFkgzrkXo4i7w-wskaY-61" target="7wFkgzrkXo4i7w-wskaY-49">
          <mxGeometry width="160" relative="1" as="geometry">
            <mxPoint x="520" y="420" as="sourcePoint" />
            <mxPoint x="680" y="420" as="targetPoint" />
          </mxGeometry>
        </mxCell>
        <mxCell id="7wFkgzrkXo4i7w-wskaY-64" value="Pošiljanje obvestila" style="ellipse;whiteSpace=wrap;html=1;fillColor=#f8cecc;strokeColor=#b85450;" vertex="1" parent="WIyWlLk6GJQsqaUBKTNV-1">
          <mxGeometry x="800" y="315" width="120" height="60" as="geometry" />
        </mxCell>
        <mxCell id="7wFkgzrkXo4i7w-wskaY-65" value="&amp;lt;&amp;lt;include&amp;gt;&amp;gt;" style="html=1;verticalAlign=bottom;labelBackgroundColor=none;endArrow=open;endFill=0;dashed=1;rounded=0;exitX=0;exitY=0.5;exitDx=0;exitDy=0;entryX=1;entryY=0.5;entryDx=0;entryDy=0;" edge="1" parent="WIyWlLk6GJQsqaUBKTNV-1" source="7wFkgzrkXo4i7w-wskaY-64" target="7wFkgzrkXo4i7w-wskaY-61">
          <mxGeometry width="160" relative="1" as="geometry">
            <mxPoint x="730" y="410" as="sourcePoint" />
            <mxPoint x="890" y="410" as="targetPoint" />
          </mxGeometry>
        </mxCell>
        <mxCell id="7wFkgzrkXo4i7w-wskaY-66" value="Določi administratorja podjetja" style="ellipse;whiteSpace=wrap;html=1;fillColor=#f8cecc;strokeColor=#b85450;" vertex="1" parent="WIyWlLk6GJQsqaUBKTNV-1">
          <mxGeometry x="120" y="450" width="125" height="60" as="geometry" />
        </mxCell>
        <mxCell id="7wFkgzrkXo4i7w-wskaY-68" value="&amp;lt;&amp;lt;include&amp;gt;&amp;gt;" style="html=1;verticalAlign=bottom;labelBackgroundColor=none;endArrow=open;endFill=0;dashed=1;rounded=0;exitX=0.5;exitY=1;exitDx=0;exitDy=0;entryX=0.5;entryY=0;entryDx=0;entryDy=0;" edge="1" parent="WIyWlLk6GJQsqaUBKTNV-1" source="7wFkgzrkXo4i7w-wskaY-66" target="7wFkgzrkXo4i7w-wskaY-45">
          <mxGeometry width="160" relative="1" as="geometry">
            <mxPoint x="150" y="540" as="sourcePoint" />
            <mxPoint x="310" y="540" as="targetPoint" />
          </mxGeometry>
        </mxCell>
        <mxCell id="7wFkgzrkXo4i7w-wskaY-69" value="&amp;lt;&amp;lt;include&amp;gt;&amp;gt;" style="html=1;verticalAlign=bottom;labelBackgroundColor=none;endArrow=open;endFill=0;dashed=1;rounded=0;exitX=1;exitY=0;exitDx=0;exitDy=0;entryX=0;entryY=1;entryDx=0;entryDy=0;" edge="1" parent="WIyWlLk6GJQsqaUBKTNV-1" source="7wFkgzrkXo4i7w-wskaY-26" target="7wFkgzrkXo4i7w-wskaY-4">
          <mxGeometry width="160" relative="1" as="geometry">
            <mxPoint x="210" y="270" as="sourcePoint" />
            <mxPoint x="370" y="270" as="targetPoint" />
          </mxGeometry>
        </mxCell>
        <mxCell id="7wFkgzrkXo4i7w-wskaY-70" value="&amp;lt;&amp;lt;include&amp;gt;&amp;gt;" style="html=1;verticalAlign=bottom;labelBackgroundColor=none;endArrow=open;endFill=0;dashed=1;rounded=0;exitX=0;exitY=0.5;exitDx=0;exitDy=0;entryX=1;entryY=0.5;entryDx=0;entryDy=0;" edge="1" parent="WIyWlLk6GJQsqaUBKTNV-1" source="7wFkgzrkXo4i7w-wskaY-53" target="7wFkgzrkXo4i7w-wskaY-45">
          <mxGeometry width="160" relative="1" as="geometry">
            <mxPoint x="260" y="670" as="sourcePoint" />
            <mxPoint x="420" y="670" as="targetPoint" />
          </mxGeometry>
        </mxCell>
      </root>
    </mxGraphModel>
  </diagram>
</mxfile>
